<svg version="1.1" id="Layer_1" xmlns="http://www.w3.org/2000/svg" xmlns:xlink="http://www.w3.org/1999/xlink" x="0px" y="0px"
	 width="100%" viewBox="0 0 1024 832" enable-background="new 0 0 1024 832" xml:space="preserve">
<path fill="#000000" opacity="1.000000" stroke="none" 
	d="
M474.908813,385.892639 
	C490.526825,371.892639 505.465088,357.626190 521.346985,344.501495 
	C533.291321,334.630768 544.944214,324.460571 556.520325,314.187225 
	C563.833923,307.696655 571.734741,301.695496 575.505615,292.068024 
	C576.523193,289.470184 579.418518,288.553741 581.837708,287.463013 
	C587.641602,284.846191 592.588806,281.399780 597.010681,276.552979 
	C604.064575,268.821289 611.876831,261.726685 619.785767,254.842194 
	C632.807617,243.507111 642.753906,229.378738 654.813171,217.172806 
	C680.941711,190.726501 708.466858,165.781097 736.088928,140.937759 
	C747.647644,130.541870 756.817017,117.912865 768.086304,107.269455 
	C771.837097,103.727005 775.650757,100.228043 779.666382,96.995918 
	C783.337341,94.041206 787.507629,92.042381 792.400940,91.781052 
	C799.151794,91.420540 804.821411,88.067474 810.263489,84.534744 
	C816.684021,80.366829 822.832703,75.778175 829.067505,71.327522 
	C830.670898,70.182945 832.037354,68.673775 834.004089,68.202698 
	C837.220825,72.250046 836.769775,75.901436 832.145874,79.024933 
	C826.633362,82.748657 820.745728,85.911949 815.138245,89.501663 
	C809.008301,93.425766 804.055786,98.418144 801.463745,105.552864 
	C808.009094,111.231590 814.238953,104.425346 820.548584,105.232880 
	C820.598267,108.590004 818.165955,109.918373 816.714294,111.808800 
	C812.116516,117.796242 812.377136,120.127434 818.066467,124.885475 
	C825.033203,130.711746 830.996277,137.406662 835.020325,145.629791 
	C838.260376,152.250687 837.868164,153.733429 832.170288,158.308121 
	C827.754456,161.853516 823.358459,165.425064 818.889160,168.902145 
	C805.912781,178.997665 797.608704,193.099030 787.338013,205.519913 
	C769.933899,226.567627 751.980957,247.136658 733.553650,267.303345 
	C709.509705,293.616699 685.891846,320.320129 661.782898,346.573090 
	C646.812073,362.875366 633.121216,380.449524 616.447083,395.068451 
	C607.261841,403.121521 598.920654,411.654694 591.023132,420.981628 
	C582.458740,431.096161 572.066162,439.668976 562.415161,448.855713 
	C545.884155,464.591644 528.622375,479.627167 512.898926,496.130157 
	C481.716156,528.858887 447.137115,557.847351 413.896118,588.314209 
	C399.897827,601.144226 386.229309,614.335876 372.485565,627.441467 
	C343.793213,654.801575 314.859100,681.899597 285.597168,708.652161 
	C272.118927,720.974548 260.715271,735.065735 251.939896,751.175232 
	C248.903152,756.750061 245.971893,756.836975 242.136383,751.489807 
	C236.907440,744.200134 234.669998,743.598816 226.550201,747.700439 
	C223.805481,749.086975 221.488876,749.625000 218.780869,747.416138 
	C204.178085,735.504456 187.991531,725.767883 173.055237,714.305481 
	C167.766418,710.246826 162.360641,706.323242 157.946533,701.267212 
	C153.429092,696.092712 153.092438,693.790894 156.542786,687.831116 
	C163.000259,676.676941 171.210098,666.775879 179.595779,657.081238 
	C212.201096,619.386597 246.642349,583.400879 282.057892,548.356995 
	C297.940918,532.640625 315.933258,519.309631 333.026031,504.968414 
	C373.985626,470.602448 415.124542,436.450287 456.154449,402.167999 
	C462.414551,396.937378 468.479370,391.472992 474.908813,385.892639 
M534.946472,394.963318 
	C534.946472,394.963318 535.211792,395.210388 534.913696,395.808350 
	C527.053589,405.586548 518.983215,415.050995 506.715790,419.703094 
	C496.724945,423.491913 490.589752,421.301056 485.639862,411.869629 
	C483.733887,408.238037 482.564606,404.174042 479.649933,400.888763 
	C475.529755,402.854126 472.069000,405.445312 468.818359,408.253387 
	C444.737549,429.055328 421.672333,450.973419 398.222565,472.471100 
	C380.062195,489.119720 362.770538,506.741760 343.179047,521.814575 
	C330.639496,531.461853 318.126068,541.168945 307.139740,552.653381 
	C301.940002,558.088867 298.149902,564.186829 297.454865,571.865112 
	C296.750275,579.649231 295.850922,587.422729 295.405273,595.221924 
	C294.122009,617.679871 293.726227,640.164917 294.006561,662.655945 
	C294.043518,665.622009 292.344116,669.738647 295.761719,671.286621 
	C299.059326,672.780212 302.522400,670.395203 305.496674,668.557678 
	C308.957916,666.419434 311.580811,663.396545 313.545380,659.830811 
	C315.807190,655.725586 317.538177,651.396973 318.627197,646.841431 
	C324.163605,623.681213 321.573608,600.569702 318.224487,577.451538 
	C317.812897,574.610535 316.185486,571.808167 317.516663,568.495178 
	C322.424377,569.400208 323.326233,573.510376 324.075714,576.980042 
	C327.008636,590.557190 327.236694,604.346313 326.708069,618.190125 
	C326.407471,626.063171 326.653748,633.957092 326.653748,642.244080 
	C331.521790,640.464050 336.271454,638.266418 339.815918,634.053894 
	C343.475494,629.704468 347.253021,625.480164 352.112518,622.427307 
	C354.232086,621.095642 354.916748,619.296814 354.623413,616.925110 
	C354.092957,612.636475 353.575867,608.345642 353.112946,604.049255 
	C352.078796,594.451477 350.970520,584.859375 350.135498,575.243896 
	C349.878784,572.287659 349.402863,569.007385 352.324738,566.226501 
	C356.419800,571.093018 356.710052,576.757019 357.336029,582.322144 
	C358.206787,590.063782 357.821259,597.997375 360.622345,605.442993 
	C361.265961,607.153809 361.645050,609.465088 364.580383,608.990784 
	C373.034302,607.624634 381.004486,596.500671 379.252563,587.908447 
	C378.091522,582.214233 376.252533,576.661438 374.897705,571.002014 
	C374.346588,568.699951 373.614380,566.080566 376.960541,564.431580 
	C382.782623,572.122681 380.162933,582.396362 385.027466,590.384888 
	C386.161224,589.976318 387.068024,589.886230 387.645294,589.402771 
	C391.216644,586.411377 394.902191,583.521667 398.205383,580.250427 
	C420.113007,558.554565 443.499603,538.468933 466.118805,517.552063 
	C508.032684,478.792542 553.004028,443.354736 591.168701,400.492218 
	C613.968384,374.886017 640.166260,352.460846 662.807800,326.603424 
	C689.915955,295.644836 717.296265,264.923279 741.878296,231.864944 
	C760.068542,207.402405 777.707581,182.522934 797.398804,159.204132 
	C800.506775,155.523590 803.208496,151.497467 806.055115,147.599777 
	C807.421509,145.728851 807.818665,143.835999 806.561523,141.586960 
	C802.177063,133.743149 796.623962,126.973091 788.886169,122.261719 
	C782.397156,118.310692 782.366943,118.447998 777.087280,123.653114 
	C775.076721,125.635231 772.960693,127.531662 770.746399,129.282013 
	C762.744568,135.607437 755.663757,142.832794 748.938538,150.494675 
	C739.820618,160.882721 730.592041,171.199997 719.130615,179.193649 
	C713.304810,183.256790 713.013916,183.594879 716.226562,190.185837 
	C720.179382,198.295410 719.295532,205.930603 715.399353,213.607574 
	C712.602966,219.117432 709.277039,224.290192 705.649048,229.291275 
	C692.726379,247.104462 678.570251,263.921997 664.169678,280.530609 
	C652.599670,293.874695 640.638062,306.867889 626.863159,318.027374 
	C625.034790,319.508636 623.285217,321.450226 620.258179,321.279602 
	C621.136902,318.512939 623.147522,317.158478 625.024719,315.974640 
	C629.334167,313.257111 630.317566,309.614868 629.357849,304.828888 
	C628.510864,300.605652 628.314392,296.256470 627.644897,291.992065 
	C626.598633,285.328674 626.073181,278.543976 623.471802,271.252777 
	C613.750061,278.479584 604.219788,284.804169 602.338928,297.577362 
	C601.307007,304.585602 601.042603,311.438324 603.718933,318.232880 
	C605.163330,321.899902 604.341187,325.019806 599.858276,326.430725 
	C596.612000,321.709808 596.839233,316.561768 596.769043,311.418793 
	C596.700806,306.421844 598.905151,301.440460 597.104614,295.877930 
	C588.303955,300.864624 582.686707,307.590515 580.296509,317.057404 
	C578.495911,324.188568 580.116943,330.883636 582.081543,337.642914 
	C582.555298,339.272919 583.397766,341.401459 581.158020,342.528290 
	C579.179138,343.523865 577.151794,342.999542 575.640625,341.509186 
	C574.514282,340.398376 574.850891,338.693451 574.778198,337.206848 
	C574.471863,330.938477 575.388367,324.576874 573.580139,318.405212 
	C565.717224,319.606598 560.618530,324.977936 559.356506,333.093781 
	C558.403015,339.225983 558.181091,345.263672 560.074707,351.333710 
	C561.559204,356.092316 559.870972,359.705750 554.326660,362.138428 
	C553.628906,354.095306 552.969788,346.498383 552.307678,338.866180 
	C541.964844,340.906433 537.168945,345.784882 535.210266,355.204376 
	C533.538574,363.244110 534.230347,371.062744 536.524963,378.850403 
	C538.494995,385.536407 536.850525,387.795135 528.808716,388.541077 
	C528.808716,378.332550 528.808716,368.166504 528.808716,357.264801 
	C521.790039,359.785919 518.396057,365.401306 513.275513,368.619049 
	C512.745605,368.952057 512.842102,370.477661 512.854919,371.447174 
	C512.943237,378.110626 512.911438,384.782867 513.274475,391.432831 
	C513.514832,395.837341 513.723083,400.377197 516.371216,404.227722 
	C520.085632,404.071381 522.424805,401.952240 524.665649,399.700134 
	C527.448669,396.903076 530.600281,394.892090 534.946472,394.963318 
M288.649719,664.442505 
	C288.649719,634.642822 288.649719,604.843140 288.649719,574.648560 
	C278.818542,581.536926 272.810150,590.128235 272.261414,602.386841 
	C271.464325,620.192932 271.225342,637.994263 271.286743,655.811218 
	C271.312592,663.308167 271.351654,670.797485 272.342743,678.232483 
	C272.926453,682.611084 273.985992,686.891235 276.567078,690.542175 
	C283.825043,687.824707 289.520996,684.739990 288.297791,675.881042 
	C287.827576,672.475464 288.494537,668.912842 288.649719,664.442505 
M267.188904,619.130005 
	C267.188904,613.726990 267.188904,608.324036 267.188904,602.051758 
	C258.874756,604.707703 255.776291,610.380188 253.389511,616.362854 
	C249.461655,626.208435 248.572296,636.616455 248.287933,647.147949 
	C247.766266,666.467834 250.345200,685.598328 251.532425,704.810913 
	C251.706192,707.622864 251.586899,710.741333 253.225967,713.540588 
	C254.050537,713.337097 254.847656,713.378906 255.261917,713.001038 
	C259.182709,709.424561 263.055359,705.794617 266.901642,702.137634 
	C267.951782,701.139221 267.959229,699.734558 267.948242,698.398071 
	C267.733826,672.285950 267.509155,646.173828 267.188904,619.130005 
M227.424927,703.002197 
	C227.710510,705.144897 227.983582,707.289368 228.284256,709.429932 
	C228.915756,713.925842 229.973602,718.333801 232.869492,721.928101 
	C235.508209,725.203064 239.271912,727.480164 243.353043,726.362915 
	C247.267303,725.291321 246.325256,720.916687 246.612549,717.823120 
	C247.582031,707.383118 247.553802,696.937805 247.001022,686.442139 
	C246.196335,671.163818 246.121109,655.848328 245.589508,640.553711 
	C245.442245,636.317078 244.780289,632.098206 244.294540,627.276184 
	C238.441391,629.412048 234.708145,632.978333 231.983887,637.669556 
	C227.951492,644.613464 226.386047,652.322449 226.399261,660.176453 
	C226.422745,674.145081 227.008392,688.112793 227.424927,703.002197 
M702.369202,195.078629 
	C699.434143,201.767517 701.089233,209.789017 696.766785,216.118683 
	C697.137512,212.135071 695.734924,208.422806 695.822327,204.643173 
	C695.858643,203.074615 695.510803,201.719696 693.746033,201.065369 
	C691.859985,200.366043 690.988953,201.721939 689.927124,202.702057 
	C687.847839,204.621262 685.885193,206.672623 683.742615,208.516281 
	C678.326599,213.176636 675.348389,225.684189 679.295227,231.718887 
	C682.650574,236.849136 678.928345,237.757660 676.232056,240.035187 
	C671.450439,235.313889 673.975037,227.212616 667.771362,223.256271 
	C656.782898,235.232300 661.693604,248.133957 664.404419,260.866089 
	C665.192383,264.566650 667.305603,266.612762 671.150879,267.200104 
	C679.716431,255.973465 688.305603,244.936539 696.640808,233.711075 
	C701.914734,226.608322 706.609741,219.123367 709.080933,210.476120 
	C710.516113,205.454147 711.540771,200.428619 709.851929,195.261627 
	C709.246521,193.409546 709.126099,190.907150 706.737915,190.621475 
	C704.382202,190.339661 703.496399,192.541962 702.369202,195.078629 
M646.541626,293.047668 
	C649.799072,289.958191 652.857788,286.614594 656.378906,283.862396 
	C659.032898,281.787933 660.187195,279.638611 659.881775,276.267639 
	C658.951599,265.999756 658.325928,255.704208 657.380859,245.437897 
	C657.198303,243.455200 657.526062,241.054520 655.215759,239.365509 
	C644.242859,245.148453 635.475464,253.373184 631.620422,265.182648 
	C627.705811,277.174377 630.998047,289.297760 633.427490,301.591949 
	C639.009521,300.076508 642.599915,296.931458 646.541626,293.047668 
M210.461807,701.047424 
	C211.084045,703.631714 211.648178,706.231689 212.339447,708.797363 
	C214.382675,716.380798 216.895905,718.157532 225.212692,717.914673 
	C226.639755,713.102966 224.887527,708.370605 224.577774,703.629333 
	C223.678391,689.861938 222.502426,676.109253 221.177582,662.375610 
	C220.876495,659.254517 221.338745,654.334351 217.373123,654.067932 
	C213.682785,653.819946 213.316742,658.739502 212.279526,661.688965 
	C207.845474,674.297729 208.701355,687.237427 210.461807,701.047424 
M194.436417,673.008728 
	C188.482361,681.404907 190.158752,690.698059 191.292435,699.921631 
	C191.329422,700.222595 191.542786,700.619995 191.792709,700.759155 
	C196.938248,703.623657 201.012131,708.223938 207.359131,710.741516 
	C206.269470,696.081848 205.235352,682.169250 204.187057,668.066162 
	C199.972183,668.700500 197.398560,670.470520 194.436417,673.008728 
M505.492615,381.811401 
	C500.229431,380.327515 489.658142,387.586456 489.419739,393.005981 
	C489.214844,397.663300 489.408539,402.320770 490.154266,406.952209 
	C490.664825,410.123383 492.244110,412.184265 495.449524,412.737762 
	C497.903473,413.161530 500.389984,413.394897 502.859650,413.730286 
	C506.603149,414.238770 507.991577,412.584900 507.671967,408.895599 
	C506.911438,400.116638 506.298676,391.324829 505.492615,381.811401 
M186.747711,690.014038 
	C186.752548,688.847778 186.819794,687.677612 186.746323,686.516296 
	C186.655914,685.087402 187.223160,683.230957 185.393616,682.595947 
	C183.694687,682.006348 182.044525,682.906128 180.820435,684.015991 
	C179.877548,684.870850 179.061066,686.109741 178.712250,687.328003 
	C177.780518,690.581787 180.380203,691.708679 182.584671,692.789612 
	C184.573166,693.764709 186.599579,694.095703 186.747711,690.014038 
z"/>
<path fill="#000000" opacity="1.000000" stroke="none" 
	d="
M846.049561,553.142578 
	C852.725037,570.605774 857.024109,588.296082 856.051147,606.614868 
	C853.308716,658.245544 831.970398,700.147278 789.034424,729.994934 
	C776.550781,738.673157 762.254028,743.241516 747.260437,745.589600 
	C726.603943,748.824524 705.865479,749.844360 685.047791,747.589844 
	C661.007324,744.986328 639.080383,736.080872 617.616516,725.388245 
	C598.948425,716.088379 586.242676,700.416931 572.788086,685.514404 
	C567.553833,679.716919 565.865173,671.925293 564.243896,664.417664 
	C560.874268,648.813538 557.465454,633.212158 554.500000,617.528809 
	C552.726379,608.148743 552.912537,598.625427 555.324585,589.310181 
	C557.785156,579.807800 560.289185,570.306763 563.158325,560.922607 
	C566.688599,549.376282 572.082764,538.736694 579.331543,528.995178 
	C592.208130,511.690430 606.242554,495.543915 623.220093,482.053650 
	C643.373352,466.039917 666.459167,458.315704 691.896667,456.745056 
	C702.349487,456.099670 712.889465,455.701111 722.474060,450.660583 
	C724.265076,449.718719 725.557312,450.441681 727.031311,451.427399 
	C739.523193,459.781128 752.338501,467.475830 767.033203,471.482086 
	C772.433472,472.954407 776.834473,476.273254 781.125549,479.796021 
	C791.290405,488.140869 801.924255,495.884399 811.735168,504.697662 
	C826.772095,518.205627 837.735535,534.468811 846.049561,553.142578 
M615.269226,588.785889 
	C612.139221,591.271301 609.101807,593.885010 605.863037,596.219543 
	C592.812256,605.626770 586.665100,617.648071 589.677795,634.163879 
	C591.161194,642.295532 591.094849,650.755432 591.242065,659.075378 
	C591.510864,674.277344 597.463135,686.322754 609.770203,695.386353 
	C630.285217,710.494751 653.494873,719.185181 678.097656,724.726257 
	C700.873108,729.855896 723.706299,731.977112 746.807007,726.816040 
	C770.286194,721.570374 787.699341,707.147949 802.572571,689.360352 
	C813.430237,676.375061 822.059509,661.952332 825.432007,644.952332 
	C829.322205,625.342285 829.346191,605.588928 827.465149,585.808411 
	C825.914551,569.502319 821.450439,554.191284 811.402039,540.801025 
	C800.121704,525.769165 785.983093,514.055481 770.170776,504.193451 
	C763.494019,500.029236 756.632996,499.385620 749.268494,502.775604 
	C740.353821,506.879059 731.286865,510.682251 721.632629,512.813843 
	C721.035889,512.945679 720.306274,513.174438 720.266357,514.381653 
	C723.125854,517.400940 726.833496,519.558960 730.681885,521.524780 
	C737.650146,525.084290 744.566284,528.750183 751.593994,532.187927 
	C759.137268,535.877869 764.354736,541.591125 767.546326,549.312622 
	C780.149475,579.803833 783.187073,611.167664 774.666565,643.093811 
	C768.961792,664.469360 755.852417,679.877869 733.537476,685.193665 
	C703.551941,692.336609 675.241882,687.709656 649.552917,670.450439 
	C634.241150,660.163086 625.598877,645.447083 623.554016,626.883118 
	C622.025635,613.007324 624.663940,599.749207 628.380493,586.550720 
	C629.145691,583.833252 630.640381,581.201172 630.191162,577.312195 
	C625.001953,581.309692 620.424377,584.835999 615.269226,588.785889 
M761.671997,621.298340 
	C761.979614,612.278992 760.969238,603.335266 759.545654,594.479919 
	C757.398560,581.124023 754.364929,567.987732 746.320435,556.656555 
	C742.956970,551.919006 738.845032,547.876831 733.035034,546.702026 
	C725.962830,545.272095 719.289612,542.854797 712.689209,540.095886 
	C709.980347,538.963562 707.257935,538.547668 704.487671,539.919373 
	C691.517822,546.341187 678.272583,552.267822 667.223145,561.967896 
	C652.319031,575.051819 644.484497,591.110291 647.623047,611.129150 
	C655.337280,660.334229 709.337708,674.495483 739.356140,663.602478 
	C748.680542,660.218933 755.111877,654.109924 758.036011,644.329895 
	C760.203064,637.081726 760.838623,629.660889 761.671997,621.298340 
M645.815369,502.377594 
	C637.682617,506.940796 629.558411,511.519440 621.414978,516.063538 
	C609.487305,522.719238 602.798340,533.311157 598.799072,545.966919 
	C597.901306,548.807861 598.496155,550.474976 601.743774,550.762817 
	C603.795105,550.944763 606.049988,550.904480 607.503723,553.387756 
	C602.307495,556.210388 597.563904,559.339478 595.131287,564.749756 
	C589.787292,576.635071 590.408386,589.229675 590.289795,601.767761 
	C592.745178,602.064453 593.561218,600.586548 594.598328,599.637878 
	C612.049011,583.674500 629.361877,567.558289 646.951721,551.750183 
	C653.488037,545.875977 659.329529,539.124390 667.263916,534.876831 
	C687.533752,524.025696 708.161438,513.914673 729.177185,504.590607 
	C735.524658,501.774414 741.836792,498.878479 748.372681,495.925354 
	C746.867676,492.750336 744.411865,491.431427 741.823364,490.309753 
	C734.475403,487.125549 726.719238,487.063324 719.259644,488.938568 
	C695.055603,495.022980 673.531799,507.035095 652.780457,520.454712 
	C639.498596,529.043884 626.588135,538.206055 613.439880,547.004822 
	C611.949890,548.001953 610.534424,549.919922 607.925903,548.789246 
	C609.313660,545.290833 612.179077,543.208435 614.805725,541.046265 
	C623.433228,533.944214 632.724792,527.763428 642.082397,521.671753 
	C662.079407,508.653961 683.326721,497.876038 704.370972,486.732697 
	C707.000366,485.340332 709.396240,483.739990 711.664307,480.738800 
	C704.404541,478.362518 697.676025,478.486420 691.042603,480.069550 
	C674.545715,484.006714 660.554688,493.155914 645.815369,502.377594 
M623.600769,503.097046 
	C622.057617,504.720642 620.588318,506.374908 620.784729,509.713684 
	C636.731934,501.158478 652.547974,493.894806 665.838562,482.355469 
	C650.402405,486.005737 636.515625,492.783356 623.600769,503.097046 
z"/>
<path fill="#000000" opacity="1.000000" stroke="none" 
	d="
M139.096313,256.060272 
	C130.974518,268.465118 122.247551,280.041626 115.401909,294.273193 
	C113.815231,290.299194 115.541039,288.624115 116.390457,286.839905 
	C131.843231,254.381119 150.604492,223.956314 172.199310,195.212952 
	C180.191605,184.574966 187.484146,173.386932 191.634018,160.158920 
	C180.680191,169.424072 169.074280,178.036163 158.956467,188.138626 
	C148.901184,198.178650 141.607437,210.829453 130.863449,220.449463 
	C129.941162,215.504379 132.354630,211.889481 134.462585,208.244904 
	C140.343704,198.076614 148.008041,189.225098 155.979614,180.730865 
	C171.951813,163.711380 188.797272,147.586365 207.102798,133.036362 
	C211.328979,129.677200 215.903275,126.868347 220.839203,124.955025 
	C228.130783,122.128563 233.206863,117.354622 236.313736,110.302887 
	C237.823181,106.876877 239.791779,106.019043 242.588760,109.097786 
	C246.437271,113.334000 251.175934,110.824699 255.250488,110.127335 
	C266.226166,108.248863 276.968018,104.742905 287.987000,103.430984 
	C314.376038,100.289101 340.481293,102.052933 365.915955,110.527321 
	C374.955566,113.539154 381.271210,120.348137 388.373260,126.057144 
	C399.669586,135.137756 410.996674,144.169281 420.182007,155.574997 
	C433.572479,172.202347 440.741882,191.591370 445.823547,211.955338 
	C451.985718,236.649170 454.790100,261.829102 448.453247,286.584106 
	C438.760437,324.449219 416.708771,353.580139 381.768494,372.276031 
	C356.886505,385.589905 330.328400,392.824188 302.284302,395.514862 
	C280.271484,397.626892 258.574341,396.172821 237.486954,390.044708 
	C194.810883,377.642792 170.160675,348.773712 161.538055,305.324005 
	C157.467484,284.812286 158.846573,264.656555 162.170715,244.352905 
	C163.495697,236.259888 165.292862,228.172699 163.741425,219.463654 
	C155.593262,231.563232 147.445084,243.662811 139.096313,256.060272 
M206.997147,203.001022 
	C206.997147,203.001022 206.968460,202.974182 206.979218,203.748306 
	C206.697327,207.336212 205.141861,210.510849 203.425964,213.534058 
	C199.727341,220.050537 195.955582,226.536453 191.930511,232.854431 
	C183.679611,245.805481 179.820862,259.795685 181.244415,275.159851 
	C183.271072,297.033234 189.678970,317.577637 200.660110,336.558502 
	C206.887299,347.322144 215.995361,355.314270 227.165390,360.917908 
	C241.272522,367.994995 256.200653,372.590515 271.655823,375.441681 
	C278.689972,376.739349 285.852661,377.355072 293.040161,376.416412 
	C303.105804,375.101898 313.155060,373.621185 323.249512,372.583313 
	C328.937134,371.998566 333.492554,370.780823 334.395325,364.021271 
	C334.668365,361.976929 336.131378,360.091309 337.050598,358.133545 
	C340.504730,350.776733 345.316864,343.885101 348.157379,336.522369 
	C352.687500,324.780243 357.995392,313.577118 364.356445,302.839630 
	C376.680389,282.036835 390.695526,262.344116 404.597595,242.584595 
	C410.794220,233.777069 416.917389,224.922989 422.208252,215.538254 
	C421.783234,215.138382 421.358215,214.738495 420.933197,214.338623 
	C409.631897,226.109085 398.330566,237.879547 386.327484,250.380936 
	C386.359406,246.013062 386.316101,245.990341 387.394623,243.934265 
	C392.264160,234.651016 399.820404,227.498047 406.650177,219.775574 
	C410.748901,215.141129 414.641998,210.391479 417.127777,204.645020 
	C419.260529,199.714569 419.557434,190.685074 417.456146,190.475525 
	C412.438293,189.975113 408.839020,193.143433 405.382446,196.375427 
	C403.514404,198.122116 402.482635,200.850906 399.530243,201.707214 
	C398.754883,199.751755 399.709595,198.272766 400.240265,196.765991 
	C401.480408,193.244736 403.563110,190.143372 406.108765,187.544250 
	C410.803192,182.751160 410.779633,177.912949 407.777435,172.239044 
	C402.803528,162.838776 396.325348,154.639908 388.640381,147.418472 
	C376.169525,135.699844 362.178955,126.591118 344.788177,124.185532 
	C326.450836,121.649002 308.061249,120.773933 289.551178,122.492653 
	C267.117432,124.575699 249.545502,133.111496 241.537094,155.945892 
	C239.421722,161.977478 234.979248,166.730637 229.957474,170.755264 
	C229.128632,171.419525 228.300293,172.576309 226.741562,171.349228 
	C227.629852,159.746109 239.878372,152.853836 240.428436,140.727127 
	C234.781647,141.585632 234.785919,141.881012 231.374969,146.637299 
	C215.611557,168.617950 204.499619,193.402664 189.521835,215.864944 
	C186.503387,220.391693 184.663223,225.770538 185.496429,232.131592 
	C188.032501,230.641724 189.043823,228.878479 190.053177,227.199768 
	C193.400803,221.632278 196.488159,215.901733 199.997025,210.440414 
	C201.828323,207.590118 203.245514,204.125870 206.997147,203.001022 
M360.689972,323.083221 
	C360.240906,323.975403 359.928711,324.975830 359.321930,325.743347 
	C351.919128,335.107300 347.531464,345.908386 344.041595,357.182068 
	C343.131439,360.122253 341.345032,362.791443 340.995209,366.397125 
	C351.802338,363.691467 361.721680,360.200714 370.478546,353.801208 
	C379.792267,346.994812 381.043945,336.138214 384.260834,326.169220 
	C384.996155,331.398895 382.596924,336.160919 383.105072,341.264404 
	C405.207367,335.724640 430.624146,278.454956 425.910339,259.880524 
	C422.878143,260.177765 421.451172,262.449005 420.025177,264.666412 
	C413.360199,275.030090 406.743774,285.425110 400.030701,295.757416 
	C399.337860,296.823761 399.128998,298.752747 396.855103,298.368286 
	C396.574799,296.527344 397.573273,295.159607 398.388885,293.759460 
	C402.074646,287.432343 405.763428,281.106873 409.483856,274.800110 
	C416.241089,263.345367 423.937653,252.346161 427.016144,239.097397 
	C427.939056,235.125397 428.513458,231.104202 426.378754,226.740097 
	C424.213043,228.552521 422.260956,229.858505 420.731689,231.547333 
	C418.730591,233.757217 417.056396,236.264191 415.254089,238.652786 
	C395.167877,265.273193 377.373169,293.376526 360.689972,323.083221 
z"/>
<path fill="#000000" opacity="1.000000" stroke="none" 
	d="
M534.812256,394.841431 
	C535.249573,389.762970 538.852905,387.302063 542.363647,384.313690 
	C565.035095,365.015778 588.827637,347.018066 610.145386,326.144104 
	C614.445740,321.933258 614.980774,321.871277 618.908630,324.836121 
	C618.590393,325.333282 618.380066,326.029816 617.913330,326.337769 
	C602.107056,336.767120 589.000488,350.294800 575.406677,363.267944 
	C566.739929,371.538940 557.962952,379.693604 548.575500,387.155731 
	C544.657593,390.270020 540.525208,393.057251 535.524170,395.064514 
	C535.211792,395.210388 534.946472,394.963318 534.812256,394.841431 
z"/>
<path fill="#000000" opacity="1.000000" stroke="none" 
	d="
M358.845581,185.135880 
	C367.693787,192.778900 372.174957,202.384598 374.299500,213.328827 
	C375.266235,218.308868 375.860687,223.467484 379.158752,228.140350 
	C382.208801,225.740036 383.664124,222.562393 385.470276,219.666107 
	C388.466003,214.862198 391.404022,210.021790 394.451233,205.250961 
	C395.198120,204.081665 395.993561,202.224289 397.876953,203.493423 
	C399.648071,204.686859 398.687378,206.090256 397.638336,207.287720 
	C392.216827,213.476456 388.487396,220.769440 384.241150,227.728302 
	C382.047821,231.322769 380.259552,235.110016 379.637726,239.255371 
	C378.832520,244.623520 377.211273,250.481354 384.530182,252.686584 
	C384.564514,255.135391 383.015839,256.353790 382.114990,257.889252 
	C379.678070,262.042938 377.062744,266.063904 376.066803,270.938446 
	C373.199402,284.972595 354.282135,315.344299 342.257935,323.343811 
	C314.354309,341.907623 275.159668,345.382141 247.114685,322.478577 
	C233.252625,311.157837 226.270065,296.141479 224.582169,278.363586 
	C223.678345,268.844116 224.830170,259.407349 224.666336,249.933578 
	C224.622223,247.382095 225.250549,244.950867 226.133987,242.626389 
	C235.497665,217.989395 249.527817,196.622086 270.895447,180.753906 
	C299.524597,159.493073 331.754272,161.163132 358.845581,185.135880 
M348.775055,212.702911 
	C340.756165,193.935196 327.651276,185.317337 308.752838,187.426453 
	C297.221954,188.713318 286.959198,193.935516 278.726196,202.020935 
	C261.896027,218.549393 253.470795,239.533554 248.200012,262.085846 
	C244.895752,276.223907 249.979202,287.113312 260.437988,296.214386 
	C263.198700,298.616699 265.846252,301.149200 268.541840,303.626190 
	C270.120697,305.077057 271.835266,306.441467 271.581909,309.363953 
	C279.503876,307.317719 287.188049,307.757416 294.773590,306.789398 
	C307.963257,305.106293 319.969757,300.917175 330.281708,292.360382 
	C351.822174,274.486298 359.401947,242.556778 348.775055,212.702911 
z"/>
<path fill="#000000" opacity="1.000000" stroke="none" 
	d="
M196.091736,248.083160 
	C207.828156,226.405121 218.750153,204.624512 235.032181,186.333267 
	C235.652115,186.727188 236.272049,187.121109 236.891983,187.515030 
	C222.842712,209.846390 208.793457,232.177750 194.056824,255.601700 
	C193.339020,251.775909 195.096893,250.232300 196.091736,248.083160 
z"/>
<path fill="#000000" opacity="1.000000" stroke="none" 
	d="
M199.544861,274.991699 
	C197.111099,274.733704 198.397552,273.473907 198.737320,272.622894 
	C202.187866,263.980438 205.616501,255.327698 209.216263,246.747055 
	C210.802414,242.966187 212.576035,239.190430 217.138214,237.536697 
	C212.378418,250.448517 206.967300,263.029938 199.544861,274.991699 
z"/>
<path fill="#000000" opacity="1.000000" stroke="none" 
	d="
M207.010071,203.015747 
	C208.156113,199.372192 210.959229,197.375458 214.834259,194.986771 
	C213.604767,199.620483 211.754379,202.272705 207.331299,202.933655 
	C206.968460,202.974182 206.997147,203.001022 207.010071,203.015747 
z"/>
</svg>